<svg width="89" height="33" viewBox="0 0 89 33" fill="none" xmlns="http://www.w3.org/2000/svg">
<path d="M48.4416 18.1534V4.27961H52.0533V19.2436H45.0636L42.068 5.3698V19.2436H38.4561V4.27961H45.446L48.4416 18.1534Z" fill="white"/>
<path d="M57.7946 19.2436H54.1828V4.27961H57.7946V19.2436Z" fill="white"/>
<path d="M73.549 4.27961L67.8976 14.0703V19.2436H64.2859V14.0703L58.6345 4.27961H62.8836L66.1979 10.4362L69.5123 4.27961H73.549Z" fill="white"/>
<path d="M74.9527 17.2342C73.4514 15.7521 72.7008 13.9278 72.7008 11.7616C72.7008 9.59534 73.4514 7.77119 74.9527 6.28906C76.4683 4.80692 78.3379 4.06578 80.5616 4.06578C82.7853 4.06578 84.6478 4.80692 86.1493 6.28906C87.6648 7.77119 88.4225 9.59534 88.4225 11.7616C88.4225 13.9278 87.6648 15.7521 86.1493 17.2342C84.6478 18.7163 82.7853 19.4575 80.5616 19.4575C78.3379 19.4575 76.4683 18.7163 74.9527 17.2342ZM77.6298 8.66188C76.8365 9.50277 76.44 10.536 76.44 11.7616C76.44 12.9873 76.8365 14.0205 77.6298 14.8614C78.4229 15.7021 79.4003 16.1226 80.5616 16.1226C81.723 16.1226 82.7003 15.7021 83.4935 14.8614C84.2868 14.0205 84.6833 12.9873 84.6833 11.7616C84.6833 10.536 84.2868 9.50277 83.4935 8.66188C82.7003 7.82114 81.723 7.40062 80.5616 7.40062C79.4003 7.40062 78.4229 7.82114 77.6298 8.66188Z" fill="white"/>
<path fill-rule="evenodd" clip-rule="evenodd" d="M10.9793 0.126925C11.4482 -0.129134 12.0329 0.0129649 12.335 0.456516L19.0218 10.2702V1.05404C19.0218 0.682778 19.2151 0.338835 19.5309 0.148722C19.8465 -0.0413908 20.2381 -0.0496671 20.5615 0.126925L30.4934 5.54914C30.8305 5.73318 31.0406 6.08913 31.0406 6.47625V25.454C31.0406 25.8373 30.8347 26.1902 30.5029 26.3759L20.571 31.9337C20.12 32.1861 19.5541 32.068 19.2391 31.6557L11.5794 21.6314V31.0119C11.5794 31.3932 11.3755 31.7447 11.046 31.9312C10.7167 32.1176 10.3133 32.1098 9.9913 31.9108L0.998874 26.353C0.689009 26.1615 0.5 25.821 0.5 25.454V6.47625C0.5 6.08913 0.710117 5.73318 1.0473 5.54914L10.9793 0.126925ZM9.49242 18.8931L2.58697 9.62857V24.8634L9.49242 29.1313V18.8931ZM3.10653 6.82089L10.8438 17.2014L18.5293 13.2656L11.1472 2.43132L3.10653 6.82089ZM19.0218 15.3767L12.1322 18.9049L19.0218 27.9212V15.3767ZM21.1088 29.223L28.3764 25.1562L21.1088 16.5264V29.223ZM21.1088 13.2731L28.9536 22.5884V7.10454L21.1088 2.82175V13.2731Z" fill="white"/>
<path d="M38.9629 27.0786H38.4056V22.045H38.9629V24.3102H42.0289V22.045H42.5863V27.0786H42.0289V24.8135H38.9629V27.0786Z" fill="white"/>
<path d="M44.9652 23.3682C45.3749 23.3682 45.7084 23.4784 45.9657 23.6989C46.223 23.9146 46.3516 24.219 46.3516 24.6122V27.0786H45.8156V26.0863C45.5726 26.7957 45.1009 27.1506 44.4006 27.1506C44.0719 27.1506 43.8027 27.0594 43.593 26.8773C43.3882 26.6952 43.2857 26.453 43.2857 26.151C43.2857 25.825 43.4025 25.5734 43.6359 25.396C43.8742 25.2185 44.1814 25.1108 44.5579 25.0724L45.3654 24.9789C45.6656 24.9501 45.8156 24.8111 45.8156 24.5618C45.8156 24.3365 45.7371 24.1591 45.5798 24.0297C45.4225 23.9003 45.2153 23.8356 44.958 23.8356C44.7008 23.8356 44.4793 23.9003 44.2934 24.0297C44.1076 24.1591 43.9813 24.3581 43.9146 24.6265L43.3929 24.4828C43.4788 24.1232 43.6621 23.8476 43.9433 23.6558C44.2291 23.4641 44.5698 23.3682 44.9652 23.3682ZM44.5364 26.6975C44.9032 26.6975 45.2081 26.5753 45.4512 26.3308C45.6942 26.0815 45.8156 25.7915 45.8156 25.4607V25.1587C45.7489 25.3024 45.587 25.3888 45.3297 25.4175L44.5507 25.5038C44.3315 25.5325 44.1552 25.5997 44.0219 25.7051C43.8885 25.8058 43.8217 25.9449 43.8217 26.1222C43.8217 26.2948 43.886 26.4339 44.0147 26.5393C44.1482 26.6448 44.322 26.6975 44.5364 26.6975Z" fill="white"/>
<path d="M47.1626 22.3615C47.1626 22.2607 47.1958 22.1769 47.2626 22.1098C47.3293 22.0426 47.4127 22.0091 47.5128 22.0091C47.6081 22.0091 47.6891 22.0426 47.7557 22.1098C47.8272 22.1769 47.8629 22.2607 47.8629 22.3615C47.8629 22.4573 47.8272 22.5387 47.7557 22.6059C47.6891 22.673 47.6081 22.7066 47.5128 22.7066C47.4127 22.7066 47.3293 22.673 47.2626 22.6059C47.1958 22.5387 47.1626 22.4573 47.1626 22.3615ZM47.7771 27.0786H47.2411V23.4401H47.7771V27.0786Z" fill="white"/>
<path d="M49.2282 23.4401V24.418C49.3521 24.0009 49.5428 23.7109 49.8001 23.548C50.0621 23.3849 50.3623 23.3347 50.7004 23.3969V23.9218C50.2955 23.8308 49.9477 23.8931 49.6572 24.1088C49.3712 24.3197 49.2282 24.617 49.2282 25.0004V27.0786H48.6922V23.4401H49.2282Z" fill="white"/>
<path d="M57.7117 26.7118L57.4472 27.1506C57.1518 26.9683 56.8326 26.7622 56.4896 26.5321C56.056 26.9443 55.4986 27.1506 54.8173 27.1506C54.3503 27.1506 53.9644 27.0307 53.6595 26.791C53.3546 26.5512 53.2022 26.2277 53.2022 25.8202C53.2022 25.2785 53.5452 24.8398 54.2313 24.5043C53.8835 24.0297 53.7095 23.6055 53.7095 23.2314C53.7095 22.8767 53.8287 22.5796 54.0668 22.3398C54.3099 22.0953 54.6267 21.9731 55.0174 21.9731C55.3842 21.9731 55.6796 22.0858 55.9035 22.3111C56.1323 22.5316 56.2466 22.8025 56.2466 23.1237C56.2466 23.4592 56.1299 23.742 55.8963 23.9722C55.6629 24.1975 55.3438 24.4012 54.9387 24.5833C55.2961 24.9765 55.7796 25.3936 56.3896 25.8345C56.6325 25.4031 56.6873 24.8998 56.5539 24.3245H57.0756C57.2186 25.0149 57.1279 25.6189 56.804 26.1367C57.1184 26.3475 57.421 26.5392 57.7117 26.7118ZM55.0102 22.4549C54.7863 22.4549 54.6005 22.5316 54.4528 22.685C54.3099 22.8384 54.2384 23.0325 54.2384 23.2675C54.2384 23.5551 54.3861 23.8906 54.6814 24.2742C54.8482 24.1879 54.9817 24.1159 55.0817 24.0584C55.1817 23.9962 55.2889 23.9195 55.4033 23.8284C55.5176 23.7325 55.601 23.6295 55.6534 23.5191C55.7058 23.4089 55.732 23.289 55.732 23.1596C55.732 22.9486 55.6654 22.7785 55.532 22.6491C55.3986 22.5196 55.2246 22.4549 55.0102 22.4549ZM54.8315 26.6686C55.3413 26.6686 55.7559 26.5226 56.075 26.2301C55.4176 25.746 54.8935 25.2809 54.5028 24.8351C54.2598 24.9692 54.0716 25.1131 53.9382 25.2665C53.8097 25.4151 53.7452 25.5972 53.7452 25.813C53.7452 26.0718 53.8429 26.2804 54.0383 26.4387C54.2384 26.5921 54.5028 26.6686 54.8315 26.6686Z" fill="white"/>
<path d="M62.609 24.5403C62.99 24.5739 63.2951 24.7009 63.5237 24.9214C63.7571 25.1372 63.8738 25.4152 63.8738 25.7555C63.8738 26.1294 63.738 26.4434 63.4665 26.6975C63.1997 26.9517 62.8566 27.0786 62.4373 27.0786H60.2219V22.045H62.2229C62.6422 22.045 62.9853 22.1721 63.2522 22.4262C63.5237 22.6802 63.6594 22.9942 63.6594 23.3682C63.6594 23.675 63.5642 23.9315 63.3736 24.1376C63.1879 24.3437 62.9329 24.478 62.609 24.5403ZM62.1872 22.5412H60.7723V24.3174H62.1872C62.4636 24.3174 62.69 24.2335 62.8663 24.0657C63.0424 23.8931 63.1306 23.6797 63.1306 23.4257C63.1306 23.1764 63.0424 22.9678 62.8663 22.8001C62.69 22.6275 62.4636 22.5412 62.1872 22.5412ZM60.7723 26.5825H62.3731C62.6447 26.5825 62.8686 26.4962 63.0449 26.3236C63.2211 26.1511 63.3093 25.9401 63.3093 25.6908C63.3093 25.4367 63.2211 25.2257 63.0449 25.058C62.8686 24.8902 62.6447 24.8063 62.3731 24.8063H60.7723V26.5825Z" fill="white"/>
<path d="M66.334 23.3682C66.8915 23.3682 67.3489 23.5671 67.7062 23.965C68.0682 24.3581 68.2278 24.8447 68.1851 25.4247H65.0047C65.0429 25.789 65.1882 26.0887 65.4407 26.3236C65.698 26.5537 66.0101 26.6687 66.3769 26.6687C66.6579 26.6687 66.9082 26.5993 67.1273 26.4602C67.3465 26.3211 67.5132 26.1319 67.6275 25.8921L68.0849 26.0863C67.9324 26.4075 67.7062 26.6663 67.406 26.8629C67.1059 27.0547 66.7604 27.1506 66.3697 27.1506C65.8314 27.1506 65.3788 26.9708 65.0119 26.6111C64.6499 26.2469 64.4687 25.7962 64.4687 25.2594C64.4687 24.7224 64.6474 24.2742 65.0047 23.9146C65.3621 23.5503 65.8052 23.3682 66.334 23.3682ZM66.334 23.8499C66.0052 23.8499 65.7194 23.9553 65.4764 24.1663C65.2335 24.3772 65.081 24.6481 65.0191 24.9789H67.6419C67.5895 24.6529 67.4417 24.3844 67.1988 24.1735C66.9605 23.9578 66.6723 23.8499 66.334 23.8499Z" fill="white"/>
<path d="M70.4386 23.3682C70.8483 23.3682 71.1818 23.4784 71.4391 23.6989C71.6964 23.9146 71.825 24.219 71.825 24.6122V27.0786H71.289V26.0863C71.046 26.7957 70.5743 27.1506 69.874 27.1506C69.5453 27.1506 69.2761 27.0594 69.0664 26.8773C68.8615 26.6952 68.7592 26.453 68.7592 26.151C68.7592 25.825 68.8759 25.5734 69.1093 25.396C69.3476 25.2185 69.6548 25.1108 70.0312 25.0724L70.8388 24.9789C71.1389 24.9501 71.289 24.8111 71.289 24.5618C71.289 24.3365 71.2104 24.1591 71.0532 24.0297C70.8959 23.9003 70.6887 23.8356 70.4314 23.8356C70.1741 23.8356 69.9525 23.9003 69.7668 24.0297C69.581 24.1591 69.4548 24.3581 69.388 24.6265L68.8664 24.4828C68.952 24.1232 69.1355 23.8476 69.4165 23.6558C69.7024 23.4641 70.0432 23.3682 70.4386 23.3682ZM70.0098 26.6975C70.3766 26.6975 70.6815 26.5753 70.9245 26.3308C71.1676 26.0815 71.289 25.7915 71.289 25.4607V25.1587C71.2224 25.3024 71.0604 25.3888 70.8031 25.4175L70.024 25.5038C69.8049 25.5325 69.6286 25.5997 69.4952 25.7051C69.3618 25.8058 69.2951 25.9449 69.2951 26.1222C69.2951 26.2948 69.3594 26.4339 69.488 26.5393C69.6214 26.6448 69.7954 26.6975 70.0098 26.6975Z" fill="white"/>
<path d="M72.6788 25.5901V23.4401H73.2148V25.5901C73.2148 25.9017 73.3148 26.1557 73.515 26.3523C73.7151 26.5489 73.9677 26.6471 74.2726 26.6471C74.5775 26.6471 74.83 26.5489 75.0302 26.3523C75.2302 26.1557 75.3302 25.9017 75.3302 25.5901V23.4401H75.8662V25.5901C75.8662 26.0503 75.7161 26.4267 75.416 26.719C75.1158 27.0067 74.7346 27.1506 74.2726 27.1506C73.8104 27.1506 73.4292 27.0067 73.1292 26.719C72.8289 26.4267 72.6788 26.0503 72.6788 25.5901Z" fill="white"/>
<path d="M77.2354 23.929H76.4208V23.44H77.2354V22.1385L77.7714 21.9731V23.44H78.872V23.929H77.7714V25.8418C77.7714 26.1102 77.8285 26.3019 77.9429 26.417C78.0573 26.5321 78.2455 26.5896 78.5075 26.5896H78.872V27.0785H78.5075C78.074 27.0785 77.7524 26.9755 77.5427 26.7694C77.3378 26.5633 77.2354 26.2469 77.2354 25.8202V23.929Z" fill="white"/>
<path d="M80.913 26.9205L82.1924 23.4401H82.7426L80.8703 28.5168H80.3199L80.8559 27.0786H80.4343L79.0835 23.4401H79.6696L80.913 26.9205Z" fill="white"/>
</svg>
